<?xml version="1.0" encoding="utf-8"?>
<!-- Generator: Adobe Illustrator 22.1.0, SVG Export Plug-In . SVG Version: 6.00 Build 0)  -->
<svg version="1.1" id="Layer_1" xmlns="http://www.w3.org/2000/svg" xmlns:xlink="http://www.w3.org/1999/xlink" x="0px" y="0px"
	 viewBox="0 0 24 24" style="enable-background:new 0 0 24 24;" xml:space="preserve">
<style type="text/css">
	.st0{fill:#FFFFFF;}
</style>
<g>
	<g>
		<path class="st0" d="M12,0C5.4,0,0,5.4,0,12c0,6.6,5.4,12,12,12s12-5.4,12-12C24,5.4,18.6,0,12,0z M19.8,9.6l-8.6,8.6
			c-0.2,0.2-0.5,0.2-0.6,0l-1.3-1.3c-0.2-0.2-0.5-0.5-0.6-0.6l-3-3.1c-0.1-0.1-0.1-0.2-0.1-0.3c0-0.1,0-0.2,0.1-0.3l1.3-1.2
			c0.1-0.1,0.2-0.1,0.3-0.1c0.1,0,0.2,0,0.3,0.1l2.9,3c0.2,0.2,0.5,0.2,0.6,0l6.7-6.7c0.2-0.2,0.5-0.2,0.6,0l1.3,1.3
			C19.9,9.1,19.9,9.4,19.8,9.6z"/>
	</g>
</g>
</svg>
