<?xml version="1.0" encoding="utf-8"?>
<!-- Generator: Adobe Illustrator 22.1.0, SVG Export Plug-In . SVG Version: 6.00 Build 0)  -->
<svg version="1.1" id="Layer_1" xmlns="http://www.w3.org/2000/svg" xmlns:xlink="http://www.w3.org/1999/xlink" x="0px" y="0px"
	 viewBox="0 0 24 24" style="enable-background:new 0 0 24 24;" xml:space="preserve">
<style type="text/css">
	.st0{fill:#FFFFFF;}
</style>
<path class="st0" d="M12,0C5.4,0,0,5.4,0,12c0,6.6,5.4,12,12,12s12-5.4,12-12C24,5.4,18.6,0,12,0z M17.5,16.2l-1.3,1.3
	c-0.2,0.2-0.5,0.2-0.6,0L12,13.9c-1.9,1.9-3.6,3.6-3.6,3.6c-0.2,0.2-0.5,0.2-0.6,0l-1.3-1.3c-0.2-0.2-0.2-0.5,0-0.6l3.6-3.6L6.5,8.4
	C6.3,8.2,6.3,8,6.5,7.8l1.3-1.3c0.2-0.2,0.5-0.2,0.6,0c0,0,1.7,1.7,3.6,3.6l3.6-3.6c0.2-0.2,0.5-0.2,0.6,0l1.3,1.3
	c0.2,0.2,0.2,0.5,0,0.6c0,0-1.7,1.7-3.6,3.6c1.9,1.9,3.6,3.6,3.6,3.6C17.7,15.8,17.7,16,17.5,16.2z"/>
</svg>
